<?xml version="1.0" standalone="no"?>
<!DOCTYPE svg PUBLIC "-//W3C//DTD SVG 20010904//EN"
 "http://www.w3.org/TR/2001/REC-SVG-20010904/DTD/svg10.dtd">
<svg version="1.0" xmlns="http://www.w3.org/2000/svg"
 width="1280.000000pt" height="960.000000pt" viewBox="0 0 1280.000000 960.000000"
 preserveAspectRatio="xMidYMid meet">
<metadata>
Created by potrace 1.15, written by Peter Selinger 2001-2017
</metadata>
<g transform="translate(0.000000,960.000000) scale(0.100000,-0.100000)"
fill="#000000" stroke="none">
<path d="M7500 7339 c-273 -148 -448 -322 -566 -561 -21 -43 -44 -78 -51 -78
-29 0 -112 -195 -218 -510 -54 -163 -79 -223 -102 -248 l-29 -32 -71 10 c-65
9 -209 2 -329 -16 -28 -4 -44 -2 -51 8 -11 14 -102 346 -127 464 -8 39 -20
111 -26 159 -6 49 -16 95 -21 101 -18 22 -43 218 -43 344 0 116 2 130 28 190
16 36 29 81 30 100 1 29 -3 36 -22 38 -33 5 -50 -13 -67 -72 -42 -136 -39
-284 9 -491 15 -65 20 -104 14 -112 -22 -27 33 -271 122 -546 47 -146 50 -160
38 -193 -9 -25 -26 -42 -65 -64 -77 -44 -191 -157 -239 -236 -73 -124 -93
-219 -75 -359 25 -188 103 -363 214 -481 158 -170 302 -232 508 -220 140 9
194 -4 203 -46 12 -62 8 -76 -27 -87 -18 -6 -57 -10 -88 -10 -38 1 -67 -5 -97
-20 -54 -28 -75 -51 -112 -127 -40 -84 -184 -219 -352 -331 -71 -46 -128 -88
-128 -93 0 -5 4 -12 10 -15 16 -10 -337 -357 -418 -410 -67 -45 -72 -51 -67
-76 7 -31 10 -30 -100 -48 -45 -7 -123 -40 -301 -128 -133 -65 -256 -125 -275
-133 -25 -11 -35 -22 -37 -42 -4 -37 28 -45 76 -21 20 11 69 36 109 57 86 45
140 56 149 32 12 -32 -58 -88 -216 -171 -88 -46 -95 -52 -95 -80 0 -28 2 -30
36 -29 22 1 53 12 80 31 24 17 83 52 131 77 88 48 130 55 136 24 4 -19 -129
-110 -220 -151 -58 -26 -82 -54 -72 -81 9 -24 64 -20 105 8 20 14 90 56 155
93 65 38 139 83 163 101 24 18 53 32 65 32 28 0 106 -56 167 -120 39 -41 55
-51 76 -48 56 6 42 75 -26 123 -71 51 -78 74 -57 202 20 123 40 173 67 166 13
-4 23 6 40 39 35 69 78 128 155 210 40 42 116 127 169 188 76 86 101 109 116
105 14 -5 37 12 91 71 40 42 109 106 153 142 44 36 115 99 158 139 43 41 81
71 86 69 5 -3 21 -45 36 -93 15 -49 34 -99 43 -113 12 -19 15 -46 13 -113 -2
-50 2 -93 8 -100 7 -9 6 -25 -4 -52 -11 -33 -18 -39 -37 -37 -178 22 -261 11
-374 -49 -255 -136 -396 -356 -395 -617 0 -110 23 -172 78 -208 31 -21 141
-47 258 -62 l60 -7 0 -190 c0 -180 -2 -198 -34 -341 -33 -146 -33 -151 -17
-186 17 -35 17 -37 -8 -86 -79 -155 -119 -289 -131 -437 -11 -141 -35 -257
-81 -393 -25 -74 -42 -141 -39 -151 3 -10 -11 -52 -30 -94 -28 -60 -35 -88
-35 -136 0 -74 11 -83 120 -102 78 -13 401 -16 439 -4 54 17 65 119 22 203
-29 58 -70 83 -144 89 -79 7 -166 44 -165 70 1 10 -4 56 -12 102 -17 108 -8
217 28 356 102 388 134 500 143 512 6 7 22 13 35 13 40 0 47 37 33 178 -10 98
-10 166 0 330 18 306 7 275 104 301 46 12 96 31 112 41 17 11 33 20 37 20 3 0
26 -33 51 -73 24 -39 70 -112 102 -162 112 -176 161 -293 170 -404 9 -95 24
-147 52 -176 l25 -24 -25 -98 c-37 -139 -55 -249 -67 -398 -14 -178 -27 -251
-66 -380 -19 -60 -34 -117 -34 -126 0 -9 -9 -37 -20 -62 -29 -65 -38 -169 -17
-200 15 -23 25 -25 119 -32 57 -3 154 -13 216 -21 127 -16 332 -18 437 -4 85
11 105 30 105 99 0 78 -64 151 -133 151 -15 0 -41 10 -57 21 -25 19 -37 21
-98 15 -56 -6 -93 -2 -184 18 -62 14 -122 26 -132 28 -14 2 -25 24 -44 83 -41
130 -36 253 21 540 25 127 49 255 54 285 7 48 11 55 33 58 75 11 68 49 -51
281 -55 108 -132 271 -169 363 -38 92 -87 203 -109 246 l-40 79 30 29 c39 38
94 149 110 221 7 39 9 87 4 143 -14 156 -10 196 28 254 89 134 97 152 104 236
4 48 12 74 29 95 19 24 24 26 24 12 0 -11 9 -30 20 -44 12 -15 20 -41 20 -63
0 -21 7 -72 16 -113 12 -58 13 -85 5 -114 -17 -59 -13 -104 9 -128 17 -18 21
-38 24 -111 2 -56 9 -104 20 -129 14 -32 16 -55 11 -117 -8 -99 -2 -118 35
-118 38 0 44 11 44 96 1 40 4 76 8 79 4 4 31 -11 60 -33 29 -23 65 -50 80 -61
32 -25 76 -27 85 -4 7 18 -31 56 -88 86 -29 16 -31 20 -16 28 25 15 21 48 -13
99 -34 51 -37 65 -15 74 30 11 16 51 -36 101 -62 61 -104 148 -130 270 -11 50
-24 105 -30 124 -10 29 -9 36 5 46 21 16 20 27 -8 99 -20 49 -25 82 -26 166
-1 58 1 128 5 156 13 93 -44 133 -170 120 -122 -14 -120 -14 -123 17 -4 31 30
125 60 169 10 15 60 58 111 96 119 89 181 157 219 237 61 132 47 252 -37 300
-32 19 -42 31 -38 44 3 10 0 21 -5 25 -6 4 -7 21 0 48 5 23 6 59 3 80 -5 25
-2 44 5 54 11 12 10 13 -4 8 -19 -7 -22 15 -3 36 10 12 9 12 -5 2 -28 -22 -33
6 -7 36 19 21 19 23 3 9 -36 -30 -50 -19 -18 15 16 18 20 25 8 15 -11 -9 -25
-17 -30 -17 -16 0 -14 38 3 44 13 5 14 4 3 -9 -8 -10 -9 -15 -2 -15 6 0 16 10
23 21 9 17 8 20 -2 14 -9 -6 -10 -3 -5 10 6 18 6 18 -12 2 -25 -23 -28 -22
-42 12 -7 18 -9 49 -5 83 14 111 -23 143 -165 143 -94 0 -95 0 -108 28 -13 26
-8 41 56 210 92 237 133 334 188 434 24 44 44 92 44 104 0 13 28 71 63 128 46
78 88 131 162 206 109 111 166 151 325 234 104 54 140 77 140 92 0 9 -29 39
-38 39 -4 0 -41 -19 -82 -41z"/>
</g>
</svg>
