<svg id="Layer_1" enable-background="new 0 0 510 510" height="30" viewBox="0 0 510 510" width="30" xmlns="http://www.w3.org/2000/svg"><g id="XMLID_51_"><path id="XMLID_127_" d="m166.257 270h-105.686c7.306 95.591 83.838 172.123 179.429 179.429v-105.686c-37.631-6.341-67.402-36.112-73.743-73.743z"/><path id="XMLID_143_" d="m343.743 240h105.686c-7.306-95.591-83.838-172.123-179.429-179.429v105.686c37.631 6.341 67.402 36.112 73.743 73.743z"/><path id="XMLID_144_" d="m270 343.743v105.686c95.591-7.306 172.123-83.838 179.429-179.429h-105.686c-6.341 37.631-36.112 67.402-73.743 73.743z"/><path id="XMLID_146_" d="m240 166.257v-105.686c-95.591 7.306-172.123 83.838-179.429 179.429h105.686c6.341-37.631 36.112-67.402 73.743-73.743z"/><path id="XMLID_149_" d="m255 195c-33.084 0-60 26.916-60 60s26.916 60 60 60 60-26.916 60-60-26.916-60-60-60zm15 75h-30v-30h30z"/><path id="XMLID_150_" d="m449.429 240c.762 9.967.762 20.03 0 30h60.571v-30z"/><path id="XMLID_151_" d="m270 60.571v-60.571h-30v60.571c9.967-.761 20.03-.761 30 0z"/><path id="XMLID_152_" d="m60.571 240h-60.571v30h60.571c-.761-9.967-.761-20.03 0-30z"/><path id="XMLID_153_" d="m240 449.429v60.571h30v-60.571c-9.967.761-20.03.761-30 0z"/></g></svg>